<svg xmlns="http://www.w3.org/2000/svg" version="1.1" xmlns:xlink="http://www.w3.org/1999/xlink" xmlns:svgjs="http://svgjs.dev/svgjs" width="512" height="512"><svg width="512" height="512" viewBox="0 0 512 512" fill="none" xmlns="http://www.w3.org/2000/svg">
<path d="M107.701 334.338L177.229 173.979H202.963L272.49 334.338H243.144L227.117 295.897H152.397L136.144 334.338H107.701ZM162.556 271.103H216.959L189.644 207.417L162.556 271.103Z" fill="#0B1019"></path>
<path d="M258.93 334.336V175.112H329.36C347.717 175.112 362.089 179.699 372.476 188.873C382.86 198.05 388.055 210.368 388.055 225.838C388.055 238.426 384.669 248.775 377.897 256.886C371.125 265 361.945 270.725 350.354 274.061L393.021 334.339H360.286L321.011 278.839H286.699V334.339H258.933L258.93 334.336ZM286.695 254.042H327.325C337.258 254.042 345.162 251.619 351.031 246.762C356.897 241.912 359.838 235.315 359.838 226.973C359.838 218.482 356.978 211.958 351.26 207.412C345.541 202.862 337.487 200.586 327.103 200.586H286.699V254.039L286.695 254.042Z" fill="#0B1019"></path>
<path d="M6 256C6 118.156 118.156 6 256 6C393.844 6 506 118.156 506 256C506 393.844 393.844 506 256 506C118.156 506 6 393.844 6 256Z" stroke="#0B1019" stroke-width="12" stroke-miterlimit="10"></path>
</svg><style>@media (prefers-color-scheme: light) { :root { filter: none; } }
@media (prefers-color-scheme: dark) { :root { filter: none; } }
</style></svg>